HIERARCHY
ROOT Hips
{
	OFFSET 0.000000 83.214638 0.000000
	CHANNELS 6 Xposition Yposition Zposition Xrotation Yrotation Zrotation
	JOINT Pelvis
	{
		OFFSET 0.000000 0.000000 0.000000
		CHANNELS 3 Xrotation Yrotation Zrotation
		JOINT LeftUpLeg
		{
			OFFSET 8.479700 -4.795502 -0.379100
			CHANNELS 3 Xrotation Yrotation Zrotation
			JOINT LeftLeg
			{
				OFFSET 0.024144 -32.555107 0.112900
				CHANNELS 3 Xrotation Yrotation Zrotation
				JOINT LeftFoot
				{
					OFFSET -0.024144 -32.638630 -3.012600
					CHANNELS 3 Xrotation Yrotation Zrotation
					JOINT LeftToeBase
					{
						OFFSET 0.970200 -13.225400 11.864200
						CHANNELS 3 Xrotation Yrotation Zrotation
						End Site
						{
							OFFSET 0.000000 12.319262 0.000000
						}
					}
					JOINT LFootTongue
					{
						OFFSET 1.142400 -1.059800 6.665200
						CHANNELS 3 Xrotation Yrotation Zrotation
						End Site
						{
							OFFSET 0.000000 12.319262 0.000000
						}
					}
				}
				JOINT LeftPantLeg
				{
					OFFSET 0.918482 -16.533964 -2.284700
					CHANNELS 3 Xrotation Yrotation Zrotation
					End Site
					{
						OFFSET 0.350399 24.744368 0.000000
					}
				}
			}
		}
		JOINT RightUpLeg
		{
			OFFSET -8.479700 -4.795502 -0.379100
			CHANNELS 3 Xrotation Yrotation Zrotation
			JOINT RightLeg
			{
				OFFSET -0.023144 -32.555092 0.112900
				CHANNELS 3 Xrotation Yrotation Zrotation
				JOINT RightFoot
				{
					OFFSET 0.023144 -32.638641 -3.012700
					CHANNELS 3 Xrotation Yrotation Zrotation
					JOINT RightToeBase
					{
						OFFSET -0.970200 -13.225400 11.864200
						CHANNELS 3 Xrotation Yrotation Zrotation
						End Site
						{
							OFFSET 0.000000 12.319244 0.000000
						}
					}
					JOINT RFootTongue
					{
						OFFSET -1.142200 -1.059800 6.665200
						CHANNELS 3 Xrotation Yrotation Zrotation
						End Site
						{
							OFFSET 0.000000 12.319243 0.000000
						}
					}
				}
				JOINT RightPantLeg
				{
					OFFSET -0.919482 -16.533978 -2.284800
					CHANNELS 3 Xrotation Yrotation Zrotation
					End Site
					{
						OFFSET -0.350400 24.744419 0.000000
					}
				}
			}
		}
	}
	JOINT Spine
	{
		OFFSET 0.000000 7.722000 1.166200
		CHANNELS 3 Xrotation Yrotation Zrotation
		JOINT Spine1
		{
			OFFSET 0.000000 12.024101 0.248800
			CHANNELS 3 Xrotation Yrotation Zrotation
			JOINT Spine2
			{
				OFFSET 0.000000 11.502998 -0.491200
				CHANNELS 3 Xrotation Yrotation Zrotation
				JOINT Neck
				{
					OFFSET 0.000000 18.430702 -3.123100
					CHANNELS 3 Xrotation Yrotation Zrotation
					JOINT Head
					{
						OFFSET 0.000000 9.051102 1.034000
						CHANNELS 3 Xrotation Yrotation Zrotation
						JOINT HairB
						{
							OFFSET 0.208400 24.786102 24.822300
							CHANNELS 3 Xrotation Yrotation Zrotation
							End Site
							{
								OFFSET 0.000000 32.263779 0.000000
							}
						}
						JOINT HairA
						{
							OFFSET -7.081100 24.428299 23.196600
							CHANNELS 3 Xrotation Yrotation Zrotation
							End Site
							{
								OFFSET 0.000000 32.263779 0.000000
							}
						}
						JOINT Hat
						{
							OFFSET 16.728800 15.048294 -15.439601
							CHANNELS 3 Xrotation Yrotation Zrotation
							End Site
							{
								OFFSET 0.000000 32.263779 0.000000
							}
						}
					}
				}
				JOINT LeftShoulder
				{
					OFFSET 6.197800 13.665199 -4.064700
					CHANNELS 3 Xrotation Yrotation Zrotation
					JOINT LeftArm
					{
						OFFSET 7.778100 -0.187103 -1.709300
						CHANNELS 3 Xrotation Yrotation Zrotation
						JOINT LeftForeArm
						{
							OFFSET 22.049376 0.000000 0.000000
							CHANNELS 3 Xrotation Yrotation Zrotation
							JOINT LeftHand
							{
								OFFSET 23.009392 0.000000 0.000000
								CHANNELS 3 Xrotation Yrotation Zrotation
								JOINT LeftHandThumb1
								{
									OFFSET 3.507191 -2.063065 3.133727
									CHANNELS 3 Xrotation Yrotation Zrotation
									JOINT LeftHandThumb2
									{
										OFFSET 3.101337 -1.790558 1.790558
										CHANNELS 3 Xrotation Yrotation Zrotation
										JOINT LeftHandThumb3
										{
											OFFSET 3.058640 -1.765907 1.765906
											CHANNELS 3 Xrotation Yrotation Zrotation
											End Site
											{
												OFFSET -0.415260 3.926476 -0.049563
											}
										}
									}
								}
								JOINT LeftHandIndex1
								{
									OFFSET 11.334419 -0.901459 3.706815
									CHANNELS 3 Xrotation Yrotation Zrotation
									JOINT LeftHandIndex2
									{
										OFFSET 3.283112 0.000000 0.000000
										CHANNELS 3 Xrotation Yrotation Zrotation
										JOINT LeftHandIndex3
										{
											OFFSET 3.323853 0.000000 0.000000
											CHANNELS 3 Xrotation Yrotation Zrotation
											End Site
											{
												OFFSET -1.135597 3.097809 0.402452
											}
										}
									}
								}
								JOINT LeftHandMiddle1
								{
									OFFSET 11.335861 0.000000 0.000000
									CHANNELS 3 Xrotation Yrotation Zrotation
									JOINT LeftHandMiddle2
									{
										OFFSET 3.410492 0.000000 0.000000
										CHANNELS 3 Xrotation Yrotation Zrotation
										JOINT LeftHandMiddle3
										{
											OFFSET 3.312172 0.000000 0.000000
											CHANNELS 3 Xrotation Yrotation Zrotation
											End Site
											{
												OFFSET -1.150200 3.080154 0.400270
											}
										}
									}
								}
								JOINT LeftHandRing1
								{
									OFFSET 11.514786 -0.013176 -3.003090
									CHANNELS 3 Xrotation Yrotation Zrotation
									JOINT LeftHandRing2
									{
										OFFSET 3.053307 0.000000 0.000000
										CHANNELS 3 Xrotation Yrotation Zrotation
										JOINT LeftHandRing3
										{
											OFFSET 3.295807 0.000000 0.000000
											CHANNELS 3 Xrotation Yrotation Zrotation
											End Site
											{
												OFFSET -1.281006 3.013344 0.375733
											}
										}
									}
								}
								JOINT LeftHandPinky1
								{
									OFFSET 10.518692 -0.960396 -5.730441
									CHANNELS 3 Xrotation Yrotation Zrotation
									JOINT LeftHandPinky2
									{
										OFFSET 2.861649 0.000000 0.000000
										CHANNELS 3 Xrotation Yrotation Zrotation
										JOINT LeftHandPinky3
										{
											OFFSET 2.863380 0.000000 0.000000
											CHANNELS 3 Xrotation Yrotation Zrotation
											End Site
											{
												OFFSET -0.843597 2.711159 0.369971
											}
										}
									}
								}
							}
							JOINT LSleeve
							{
								OFFSET 6.676277 -0.344902 -1.011730
								CHANNELS 3 Xrotation Yrotation Zrotation
								End Site
								{
									OFFSET 0.000000 14.885353 0.000000
								}
							}
						}
					}
				}
				JOINT RightShoulder
				{
					OFFSET -6.197800 13.665199 -4.064700
					CHANNELS 3 Xrotation Yrotation Zrotation
					JOINT RightArm
					{
						OFFSET -7.778100 -0.187103 -1.709300
						CHANNELS 3 Xrotation Yrotation Zrotation
						JOINT RightForeArm
						{
							OFFSET -22.049376 0.000000 0.000000
							CHANNELS 3 Xrotation Yrotation Zrotation
							JOINT RightHand
							{
								OFFSET -23.009392 0.000000 0.000000
								CHANNELS 3 Xrotation Yrotation Zrotation
								JOINT RightHandThumb1
								{
									OFFSET -3.507191 -2.063065 3.133727
									CHANNELS 3 Xrotation Yrotation Zrotation
									JOINT RightHandThumb2
									{
										OFFSET -3.101337 -1.790558 1.790558
										CHANNELS 3 Xrotation Yrotation Zrotation
										JOINT RightHandThumb3
										{
											OFFSET -3.058640 -1.765907 1.765906
											CHANNELS 3 Xrotation Yrotation Zrotation
											End Site
											{
												OFFSET 0.415260 3.926476 -0.049563
											}
										}
									}
								}
								JOINT RightHandIndex1
								{
									OFFSET -11.334419 -0.901459 3.706815
									CHANNELS 3 Xrotation Yrotation Zrotation
									JOINT RightHandIndex2
									{
										OFFSET -3.283112 0.000000 0.000000
										CHANNELS 3 Xrotation Yrotation Zrotation
										JOINT RightHandIndex3
										{
											OFFSET -3.323853 0.000000 0.000000
											CHANNELS 3 Xrotation Yrotation Zrotation
											End Site
											{
												OFFSET 1.135597 3.097809 0.402452
											}
										}
									}
								}
								JOINT RightHandMiddle1
								{
									OFFSET -11.335861 0.000000 0.000000
									CHANNELS 3 Xrotation Yrotation Zrotation
									JOINT RightHandMiddle2
									{
										OFFSET -3.410492 0.000000 0.000000
										CHANNELS 3 Xrotation Yrotation Zrotation
										JOINT RightHandMiddle3
										{
											OFFSET -3.312172 0.000000 0.000000
											CHANNELS 3 Xrotation Yrotation Zrotation
											End Site
											{
												OFFSET 1.150200 3.080154 0.400270
											}
										}
									}
								}
								JOINT RightHandRing1
								{
									OFFSET -11.514786 -0.013176 -3.003090
									CHANNELS 3 Xrotation Yrotation Zrotation
									JOINT RightHandRing2
									{
										OFFSET -3.053307 0.000000 0.000000
										CHANNELS 3 Xrotation Yrotation Zrotation
										JOINT RightHandRing3
										{
											OFFSET -3.295807 0.000000 0.000000
											CHANNELS 3 Xrotation Yrotation Zrotation
											End Site
											{
												OFFSET 1.281006 3.013344 0.375733
											}
										}
									}
								}
								JOINT RightHandPinky1
								{
									OFFSET -10.518692 -0.960396 -5.730441
									CHANNELS 3 Xrotation Yrotation Zrotation
									JOINT RightHandPinky2
									{
										OFFSET -2.861649 0.000000 0.000000
										CHANNELS 3 Xrotation Yrotation Zrotation
										JOINT RightHandPinky3
										{
											OFFSET -2.863380 0.000000 0.000000
											CHANNELS 3 Xrotation Yrotation Zrotation
											End Site
											{
												OFFSET 0.843597 2.711159 0.369971
											}
										}
									}
								}
							}
							JOINT RSleeve
							{
								OFFSET -6.676277 -0.344902 -1.011730
								CHANNELS 3 Xrotation Yrotation Zrotation
								End Site
								{
									OFFSET 0.000000 14.885353 0.000000
								}
							}
						}
					}
				}
				JOINT Backpack
				{
					OFFSET 0.000000 -2.471497 36.677502
					CHANNELS 3 Xrotation Yrotation Zrotation
					End Site
					{
						OFFSET 0.000000 20.427315 0.000000
					}
				}
				JOINT Hood
				{
					OFFSET 0.000000 18.754097 -10.431000
					CHANNELS 3 Xrotation Yrotation Zrotation
					JOINT Hood1
					{
						OFFSET 0.000000 -5.011002 -7.685901
						CHANNELS 3 Xrotation Yrotation Zrotation
						End Site
						{
							OFFSET 0.000000 9.175140 0.000000
						}
					}
				}
				JOINT LHoodieString
				{
					OFFSET 5.250500 16.397697 3.089900
					CHANNELS 3 Xrotation Yrotation Zrotation
					JOINT LHoodieString1
					{
						OFFSET 0.257700 -6.364304 3.694600
						CHANNELS 3 Xrotation Yrotation Zrotation
						JOINT LHoodieString2
						{
							OFFSET 0.000000 -9.643799 2.679100
							CHANNELS 3 Xrotation Yrotation Zrotation
							End Site
							{
								OFFSET 0.000000 10.009018 0.000000
							}
						}
					}
				}
				JOINT RHoodieString
				{
					OFFSET -5.250500 16.397697 3.089900
					CHANNELS 3 Xrotation Yrotation Zrotation
					JOINT RHoodieString1
					{
						OFFSET -0.257700 -6.364304 3.694600
						CHANNELS 3 Xrotation Yrotation Zrotation
						JOINT RHoodieString2
						{
							OFFSET 0.000000 -9.643799 2.679100
							CHANNELS 3 Xrotation Yrotation Zrotation
							End Site
							{
								OFFSET 0.000000 10.009018 0.000000
							}
						}
					}
				}
			}
			JOINT LBackpack_Strap
			{
				OFFSET 15.223200 -7.719803 -6.610900
				CHANNELS 3 Xrotation Yrotation Zrotation
				End Site
				{
					OFFSET 0.000000 16.040596 0.000000
				}
			}
			JOINT RBackpack_Strap
			{
				OFFSET -15.223000 -7.719803 -6.610900
				CHANNELS 3 Xrotation Yrotation Zrotation
				End Site
				{
					OFFSET 0.000000 16.040596 0.000000
				}
			}
		}
	}
	JOINT BoyFacialAnim_Joint
	{
		OFFSET 1.000000 -82.208099 -1.550900
		CHANNELS 3 Xrotation Yrotation Zrotation
		End Site
		{
			OFFSET 0.000000 30.012791 0.000000
		}
	}
}
MOTION
Frames: 4
Frame Time: 0.033333
10.414985 74.487534 -8.261529 1.199800 -77.198739 4.143673 -0.000000 0.000000 0.000000 -30.501214 3.743489 22.548809 61.072881 12.063257 -5.606044 -1.823942 3.320271 -4.196021 0.000001 -0.000000 -0.000001 0.000001 -0.000000 -0.000001 0.000000 0.000002 0.000001 -46.560238 -16.245009 -22.797368 45.557140 -3.448759 -4.748391 -3.192435 4.192980 6.947585 -0.000000 -0.000001 0.000000 -0.000000 -0.000001 0.000000 -0.000000 0.000001 -0.000000 17.668572 -5.879822 4.788089 21.439090 -6.334854 6.734318 13.919766 -6.212845 6.832592 7.832186 -6.470815 8.230143 -29.939195 -2.796685 0.909232 0.000001 -0.000002 0.000001 0.000001 -0.000002 0.000001 0.000001 -0.000002 0.000001 21.921316 -17.305743 13.113663 -23.633525 -8.533597 -34.301893 -0.437390 -40.549324 -20.636476 -54.784128 -19.506925 -15.020209 36.868005 8.705442 -16.826810 2.871073 26.892379 15.807933 -0.000002 -0.000003 0.000000 0.475544 9.023607 -19.605874 0.342916 1.897024 -20.491421 -0.000001 -0.000001 -0.000002 0.890966 9.910131 -30.010769 0.342920 1.897018 -20.491404 0.000001 -0.000001 -0.000003 1.447910 10.689700 -40.194837 0.342861 1.896882 -20.489717 -0.000001 -0.000002 0.000001 1.778007 11.044246 -45.434142 0.334528 1.891928 -20.490137 0.000000 -0.000001 0.000001 0.000002 0.000000 0.000000 18.500013 15.967731 -6.686704 -34.623059 10.599281 24.493897 -37.775666 59.180973 39.343416 -11.960215 -1.535391 27.599507 41.015546 -7.309390 19.816508 8.633818 -28.228241 -20.705891 0.000000 0.000000 -0.000001 23.355902 2.124039 45.259572 -1.278518 11.459499 39.432543 0.000001 -0.000001 0.000005 1.577098 -2.879625 40.149136 4.607735 -0.163394 37.380147 0.000004 0.000000 -0.000000 -9.451377 -9.313081 40.038596 -4.003727 -6.958200 37.888699 -0.000001 0.000000 0.000000 -14.547704 -2.851745 44.408097 4.684196 -0.009992 37.022945 -0.000000 -0.000001 -0.000002 0.000001 -0.000001 0.000002 0.000000 -0.000000 0.000001 0.000000 -0.000000 0.000001 0.000000 -0.000000 0.000001 0.000000 -0.000000 0.000001 0.000000 -0.000000 0.000001 0.000002 -0.000001 0.000000 0.000000 -0.000000 0.000001 0.000000 -0.000000 0.000001 0.000002 -0.000001 0.000000 -0.000003 -0.000000 0.000001 -0.000003 -0.000000 0.000001 -0.000000 0.000000 0.000000 
9.360521 74.758636 -9.139035 -0.450113 -78.090127 3.371948 0.000000 -0.000000 -0.000000 -29.969186 4.186250 22.133067 57.466022 12.207056 -5.486415 -2.673643 -0.949043 -7.402553 -0.000000 -0.000001 -0.000000 -0.000000 -0.000001 -0.000000 -0.000002 0.000000 0.000001 -45.974621 -16.287674 -22.403391 46.401498 -3.265801 -5.107624 -4.702952 4.477731 6.414583 -0.000000 -0.000000 -0.000000 -0.000000 -0.000000 -0.000000 -0.000000 0.000000 0.000000 17.707009 -5.668351 4.587982 21.459882 -6.053338 6.499098 13.948252 -5.930358 6.589006 7.732208 -6.684589 8.775776 -30.325435 -2.775406 0.178499 -0.000003 0.000001 -0.000001 -0.000003 0.000001 -0.000001 -0.000003 0.000001 -0.000001 21.812590 -17.359511 12.775882 -23.366277 -9.451086 -34.350722 -0.730566 -43.033815 -20.446479 -54.784124 -19.506925 -15.020209 36.938025 8.796237 -16.799701 2.876049 26.926605 15.813838 0.000001 0.000002 0.000000 0.483044 9.044262 -19.838945 0.356108 1.931939 -20.886418 0.000002 -0.000001 -0.000002 0.891120 9.910403 -30.013914 0.356125 1.931947 -20.886416 0.000001 0.000000 0.000000 1.434265 10.673777 -39.972227 0.356063 1.931803 -20.884709 0.000001 0.000002 -0.000000 1.755104 11.021976 -45.095088 0.347724 1.926845 -20.885151 -0.000001 -0.000001 0.000001 -0.000003 0.000001 0.000000 18.483453 15.805483 -6.807635 -35.535412 10.268722 23.162531 -37.745705 59.082052 39.344857 -11.946547 -3.149873 27.407864 40.978970 -7.030064 19.852157 8.517995 -27.984769 -20.654180 -0.000001 0.000000 -0.000000 23.189230 2.040537 45.050097 -1.360900 11.375578 39.188965 0.000003 -0.000000 0.000002 1.365026 -2.878306 39.891679 4.456911 -0.285851 37.118974 0.000000 -0.000004 0.000001 -9.554453 -9.353519 39.759563 -4.165225 -7.032773 37.645530 0.000001 0.000001 0.000000 -14.627871 -2.868261 44.099424 4.537094 -0.131788 36.770856 -0.000002 0.000003 -0.000003 0.000000 -0.000002 0.000001 0.000001 0.000001 -0.000001 0.000001 0.000001 -0.000001 0.000001 0.000001 -0.000001 0.000001 0.000001 -0.000001 0.000001 0.000001 -0.000001 0.000001 -0.000001 -0.000000 0.000001 0.000001 -0.000001 0.000001 0.000001 -0.000001 0.000001 -0.000001 -0.000000 0.000003 0.000000 -0.000000 0.000003 0.000000 -0.000000 0.000000 -0.000000 -0.000000 
8.426974 74.973969 -9.788143 -2.572306 -78.941769 2.045166 0.000000 -0.000001 -0.000000 -29.285720 4.882811 21.160054 52.379867 12.727025 -4.596791 -3.590112 -3.419609 -10.350555 -0.000001 -0.000001 -0.000001 -0.000001 -0.000001 -0.000000 -0.000001 0.000002 0.000001 -45.246165 -16.070291 -22.077523 47.105069 -3.028307 -5.364250 -5.983913 4.541959 6.072675 -0.000000 0.000000 0.000000 -0.000000 0.000000 0.000000 -0.000000 -0.000002 -0.000000 17.804399 -5.355386 4.214272 21.518993 -5.669010 6.168685 14.015476 -5.532436 6.264334 7.645914 -6.958777 9.484963 -30.514314 -3.062306 -0.232754 -0.000000 -0.000000 0.000000 -0.000000 -0.000000 0.000000 -0.000000 -0.000000 0.000000 21.788087 -17.377584 12.697910 -23.303233 -10.244325 -34.461696 -1.063801 -45.596502 -20.267319 -54.784128 -19.506921 -15.020208 36.989446 8.863024 -16.779886 2.876746 26.931347 15.814683 0.000002 -0.000001 -0.000001 0.489530 9.061925 -20.038368 0.371108 1.970744 -21.326301 -0.000000 0.000001 -0.000005 0.889833 9.908204 -29.986931 0.371096 1.970748 -21.326313 0.000001 0.000001 -0.000003 1.419066 10.655866 -39.722932 0.371030 1.970589 -21.324612 -0.000001 -0.000000 -0.000000 1.730665 10.997924 -44.731213 0.362719 1.965636 -21.325039 -0.000000 0.000001 0.000005 0.000001 -0.000001 -0.000000 18.500672 15.696014 -6.942509 -36.486321 10.180973 21.890577 -37.725648 59.014542 39.347873 -12.001354 -4.405933 26.810774 40.940048 -6.729640 19.890233 8.393275 -27.723106 -20.598420 0.000000 -0.000000 0.000003 23.009647 1.951920 44.824527 -1.450233 11.286113 38.927143 -0.000003 0.000004 -0.000001 1.141983 -2.875267 39.621098 4.297383 -0.413479 36.844069 0.000007 0.000000 -0.000000 -9.665921 -9.395745 39.459369 -4.339464 -7.111974 37.383948 0.000001 0.000001 0.000002 -14.713105 -2.884439 43.773282 4.380786 -0.259457 36.504202 -0.000001 -0.000000 0.000000 0.000001 0.000001 0.000000 -0.000001 -0.000000 0.000001 -0.000001 -0.000000 0.000001 -0.000001 -0.000000 0.000001 -0.000001 -0.000000 0.000001 -0.000001 -0.000000 0.000001 0.000001 -0.000000 -0.000000 -0.000001 -0.000000 0.000001 -0.000001 -0.000000 0.000001 0.000001 -0.000000 -0.000000 0.000001 -0.000000 -0.000000 0.000001 -0.000000 -0.000000 0.000000 -0.000001 -0.000000 
7.591254 75.109718 -10.171360 -5.214143 -80.056190 -0.090391 0.000000 0.000001 0.000000 -28.027210 5.558021 20.409181 46.032531 11.456395 -3.829019 -4.193199 -3.794798 -12.675032 -0.000000 0.000002 -0.000000 -0.000000 0.000002 -0.000000 -0.000000 0.000001 -0.000001 -44.475535 -15.826180 -21.630127 47.679908 -2.569590 -5.571883 -7.016203 4.580641 5.819036 0.000000 0.000000 -0.000000 0.000000 0.000000 -0.000000 -0.000001 -0.000003 0.000001 17.922106 -4.897293 3.827151 21.583879 -5.197229 5.788915 14.087473 -5.042510 5.902115 7.621216 -7.228360 10.342015 -30.559185 -3.312239 -0.561792 0.000001 0.000000 -0.000000 0.000001 0.000000 -0.000000 0.000001 0.000000 -0.000000 21.807059 -17.371208 12.756475 -23.352811 -10.630588 -34.613899 -1.436870 -48.304334 -20.115706 -54.784128 -19.506920 -15.020209 37.031220 8.917305 -16.763784 2.873926 26.912031 15.811314 -0.000001 -0.000001 0.000001 0.495890 9.079070 -20.232468 0.390158 2.018862 -21.874027 -0.000001 -0.000001 -0.000000 0.887213 9.903715 -29.931668 0.390168 2.018864 -21.874024 0.000002 0.000004 0.000003 1.400865 10.634236 -39.422862 0.390101 2.018713 -21.872313 0.000001 0.000001 -0.000002 1.702204 10.969519 -44.304920 0.381770 2.013757 -21.872742 -0.000002 0.000002 0.000005 -0.000002 -0.000000 -0.000000 18.514206 15.639181 -6.988610 -37.291870 10.236095 20.925533 -37.699834 58.957947 39.345052 -12.155037 -5.358825 25.631921 40.898988 -6.410452 19.930477 8.260587 -27.445278 -20.538951 0.000000 0.000000 -0.000002 22.818456 1.859127 44.584555 -1.545809 11.191777 38.649049 -0.000001 0.000001 0.000000 0.909560 -2.870299 39.339308 4.130106 -0.545262 36.557317 0.000002 0.000003 -0.000002 -9.784985 -9.439207 39.140351 -4.525352 -7.194826 37.105914 0.000001 0.000001 0.000000 -14.802881 -2.899987 43.431961 4.216186 -0.391852 36.224864 -0.000007 0.000001 0.000000 -0.000000 -0.000002 0.000002 0.000001 0.000000 0.000001 0.000001 0.000000 0.000001 0.000001 0.000000 0.000001 0.000001 0.000000 0.000001 0.000001 0.000000 0.000001 0.000001 0.000000 0.000000 0.000001 0.000000 0.000001 0.000001 0.000000 0.000001 0.000001 0.000000 0.000000 0.000002 0.000000 0.000000 0.000002 0.000000 0.000000 0.000000 0.000001 0.000000 
